<mxfile host="Electron" agent="Mozilla/5.0 (X11; Linux x86_64) AppleWebKit/537.36 (KHTML, like Gecko) draw.io/25.0.2 Chrome/128.0.6613.186 Electron/32.2.7 Safari/537.36" version="25.0.2">
  <diagram name="Page-1" id="PYJ2EbEZMSt3SerLNBYG">
    <mxGraphModel dx="1219" dy="1237" grid="1" gridSize="10" guides="1" tooltips="1" connect="1" arrows="1" fold="1" page="1" pageScale="1" pageWidth="827" pageHeight="1169" background="#444444" math="0" shadow="0">
      <root>
        <mxCell id="0" />
        <mxCell id="1" parent="0" />
        <mxCell id="-faT03Czc0mxViKuH39c-1" value="&lt;div style=&quot;text-align: center;&quot;&gt;S0&lt;/div&gt;&lt;div&gt;&lt;br&gt;&lt;/div&gt;&lt;font&gt;S = •&amp;nbsp;E&lt;/font&gt;&lt;div&gt;E = • a A&lt;br&gt;&lt;div&gt;E =&amp;nbsp;&lt;span style=&quot;background-color: initial;&quot;&gt;•, $&lt;/span&gt;&lt;/div&gt;&lt;/div&gt;" style="rounded=0;whiteSpace=wrap;html=1;fontFamily=monospace;align=left;spacing=7;verticalAlign=top;spacingTop=-3;fillColor=#333333;fontColor=none;noLabel=1;" vertex="1" parent="1">
          <mxGeometry x="17.01" y="242.5" width="75" height="65" as="geometry" />
        </mxCell>
        <mxCell id="pAEnlqBqYRoMagqUOsFd-15" style="edgeStyle=orthogonalEdgeStyle;rounded=0;orthogonalLoop=1;jettySize=auto;html=1;fontFamily=monospace;fontSize=12;fontColor=default;labelBackgroundColor=#444444;resizable=0;" parent="1" source="hS7_LjZfpNOxfmpkIFcN-1" target="pAEnlqBqYRoMagqUOsFd-14" edge="1">
          <mxGeometry relative="1" as="geometry" />
        </mxCell>
        <mxCell id="pAEnlqBqYRoMagqUOsFd-16" value="a↓0" style="edgeLabel;html=1;align=center;verticalAlign=middle;resizable=0;points=[];rounded=0;strokeColor=default;spacing=10;fontFamily=monospace;fontSize=12;fontColor=default;labelBackgroundColor=#444444;fillColor=default;gradientColor=none;" parent="pAEnlqBqYRoMagqUOsFd-15" vertex="1" connectable="0">
          <mxGeometry x="0.0195" relative="1" as="geometry">
            <mxPoint as="offset" />
          </mxGeometry>
        </mxCell>
        <mxCell id="rSdr6fm6Imb2P2yYMMA1-73" style="edgeStyle=orthogonalEdgeStyle;rounded=0;orthogonalLoop=1;jettySize=auto;html=1;fontFamily=monospace;fontSize=12;fontColor=default;labelBackgroundColor=#444444;resizable=0;" parent="1" source="hS7_LjZfpNOxfmpkIFcN-1" target="rSdr6fm6Imb2P2yYMMA1-28" edge="1">
          <mxGeometry relative="1" as="geometry">
            <Array as="points">
              <mxPoint x="53" y="130" />
              <mxPoint x="53" y="130" />
            </Array>
          </mxGeometry>
        </mxCell>
        <mxCell id="rSdr6fm6Imb2P2yYMMA1-74" value="↓0" style="edgeLabel;html=1;align=center;verticalAlign=middle;resizable=0;points=[];rounded=0;strokeColor=default;spacing=10;fontFamily=monospace;fontSize=12;fontColor=default;labelBackgroundColor=#444444;fillColor=default;gradientColor=none;" parent="rSdr6fm6Imb2P2yYMMA1-73" vertex="1" connectable="0">
          <mxGeometry x="-0.5644" y="1" relative="1" as="geometry">
            <mxPoint x="-2" y="5" as="offset" />
          </mxGeometry>
        </mxCell>
        <mxCell id="hS7_LjZfpNOxfmpkIFcN-1" value="&lt;div style=&quot;text-align: center;&quot;&gt;S0&lt;/div&gt;&lt;div&gt;&lt;br&gt;&lt;/div&gt;&lt;font color=&quot;#666666&quot;&gt;S = •&amp;nbsp;E&lt;/font&gt;&lt;div&gt;E = • a A&lt;br&gt;&lt;div&gt;E =&amp;nbsp;&lt;span style=&quot;background-color: initial;&quot;&gt;•, $&lt;/span&gt;&lt;/div&gt;&lt;/div&gt;" style="rounded=0;whiteSpace=wrap;html=1;fontFamily=monospace;align=left;spacing=7;verticalAlign=top;spacingTop=-3;fillColor=#333333;fontColor=default;" parent="1" vertex="1">
          <mxGeometry x="30" y="27.5" width="80" height="90" as="geometry" />
        </mxCell>
        <mxCell id="hS7_LjZfpNOxfmpkIFcN-2" value="&lt;div style=&quot;text-align: center;&quot;&gt;S8&lt;/div&gt;&lt;div&gt;&lt;br&gt;&lt;/div&gt;&lt;div&gt;S = E&amp;nbsp;&lt;span style=&quot;background-color: initial;&quot;&gt;•&lt;/span&gt;&lt;/div&gt;" style="rounded=0;whiteSpace=wrap;html=1;fontFamily=monospace;align=left;spacing=7;verticalAlign=top;spacingTop=-3;fillColor=#333333;" parent="1" vertex="1">
          <mxGeometry x="19.999999999999993" y="245" width="70.02" height="60" as="geometry" />
        </mxCell>
        <mxCell id="hS7_LjZfpNOxfmpkIFcN-57" value="" style="endArrow=classic;html=1;rounded=0;fontFamily=monospace;fontSize=12;fontColor=default;" parent="1" target="hS7_LjZfpNOxfmpkIFcN-1" edge="1">
          <mxGeometry width="50" height="50" relative="1" as="geometry">
            <mxPoint x="10" y="72.5" as="sourcePoint" />
            <mxPoint x="-10" y="52.5" as="targetPoint" />
          </mxGeometry>
        </mxCell>
        <mxCell id="rSdr6fm6Imb2P2yYMMA1-2" style="edgeStyle=orthogonalEdgeStyle;rounded=0;orthogonalLoop=1;jettySize=auto;html=1;fontFamily=monospace;fontSize=12;fontColor=default;labelBackgroundColor=#444444;resizable=0;" parent="1" source="pAEnlqBqYRoMagqUOsFd-14" target="rSdr6fm6Imb2P2yYMMA1-1" edge="1">
          <mxGeometry relative="1" as="geometry">
            <Array as="points">
              <mxPoint x="250" y="147.5" />
              <mxPoint x="250" y="147.5" />
            </Array>
          </mxGeometry>
        </mxCell>
        <mxCell id="rSdr6fm6Imb2P2yYMMA1-3" value="b↓9" style="edgeLabel;html=1;align=center;verticalAlign=middle;resizable=0;points=[];rounded=0;strokeColor=default;spacing=10;fontFamily=monospace;fontSize=12;fontColor=default;labelBackgroundColor=#444444;fillColor=default;gradientColor=none;" parent="rSdr6fm6Imb2P2yYMMA1-2" vertex="1" connectable="0">
          <mxGeometry x="0.0035" relative="1" as="geometry">
            <mxPoint y="-3" as="offset" />
          </mxGeometry>
        </mxCell>
        <mxCell id="rSdr6fm6Imb2P2yYMMA1-11" style="edgeStyle=orthogonalEdgeStyle;rounded=0;orthogonalLoop=1;jettySize=auto;html=1;fontFamily=monospace;fontSize=12;fontColor=default;labelBackgroundColor=#444444;resizable=0;" parent="1" source="rSdr6fm6Imb2P2yYMMA1-37" target="rSdr6fm6Imb2P2yYMMA1-10" edge="1">
          <mxGeometry relative="1" as="geometry">
            <Array as="points">
              <mxPoint x="620" y="200" />
              <mxPoint x="620" y="200" />
            </Array>
          </mxGeometry>
        </mxCell>
        <mxCell id="rSdr6fm6Imb2P2yYMMA1-61" value="[9]" style="edgeLabel;html=1;align=center;verticalAlign=middle;resizable=0;points=[];rounded=0;strokeColor=default;spacing=10;fontFamily=monospace;fontSize=12;fontColor=default;labelBackgroundColor=#444444;fillColor=default;gradientColor=none;" parent="rSdr6fm6Imb2P2yYMMA1-11" vertex="1" connectable="0">
          <mxGeometry x="-0.0799" y="-2" relative="1" as="geometry">
            <mxPoint x="-2" y="3" as="offset" />
          </mxGeometry>
        </mxCell>
        <mxCell id="rSdr6fm6Imb2P2yYMMA1-53" style="edgeStyle=orthogonalEdgeStyle;rounded=0;orthogonalLoop=1;jettySize=auto;html=1;fontFamily=monospace;fontSize=12;fontColor=default;labelBackgroundColor=#444444;resizable=0;" parent="1" source="pAEnlqBqYRoMagqUOsFd-14" target="rSdr6fm6Imb2P2yYMMA1-44" edge="1">
          <mxGeometry relative="1" as="geometry">
            <Array as="points">
              <mxPoint x="360" y="120" />
              <mxPoint x="360" y="120" />
            </Array>
          </mxGeometry>
        </mxCell>
        <mxCell id="rSdr6fm6Imb2P2yYMMA1-54" value="(d$)↓9" style="edgeLabel;html=1;align=center;verticalAlign=middle;resizable=0;points=[];rounded=0;strokeColor=default;spacing=10;fontFamily=monospace;fontSize=12;fontColor=default;labelBackgroundColor=#444444;fillColor=default;gradientColor=none;" parent="rSdr6fm6Imb2P2yYMMA1-53" vertex="1" connectable="0">
          <mxGeometry x="-0.0815" relative="1" as="geometry">
            <mxPoint as="offset" />
          </mxGeometry>
        </mxCell>
        <mxCell id="pAEnlqBqYRoMagqUOsFd-14" value="&lt;div style=&quot;text-align: center;&quot;&gt;S9&lt;/div&gt;&lt;div&gt;&lt;span style=&quot;background-color: initial;&quot;&gt;&lt;br&gt;&lt;/span&gt;&lt;/div&gt;&lt;div&gt;&lt;font color=&quot;#666666&quot;&gt;&lt;span style=&quot;background-color: initial;&quot;&gt;E =&lt;/span&gt;&lt;span style=&quot;background-color: initial;&quot;&gt;&amp;nbsp;a&lt;/span&gt;&lt;span style=&quot;background-color: initial;&quot;&gt;&amp;nbsp;&lt;/span&gt;&lt;span style=&quot;background-color: initial;&quot;&gt;•&lt;/span&gt;&lt;span style=&quot;background-color: initial;&quot;&gt;&amp;nbsp;A&lt;br&gt;&lt;/span&gt;&lt;/font&gt;&lt;/div&gt;&lt;div&gt;&lt;span style=&quot;background-color: initial;&quot;&gt;&lt;font color=&quot;#666666&quot;&gt;A = • B D C&lt;/font&gt;&lt;/span&gt;&lt;/div&gt;&lt;div&gt;&lt;span style=&quot;background-color: initial;&quot;&gt;A = • b&lt;/span&gt;&lt;/div&gt;&lt;div&gt;&lt;font color=&quot;#666666&quot;&gt;&lt;span style=&quot;background-color: initial;&quot;&gt;B =&amp;nbsp;&lt;/span&gt;&lt;span style=&quot;background-color: initial;&quot;&gt;• C C&lt;/span&gt;&lt;/font&gt;&lt;/div&gt;&lt;div&gt;&lt;span style=&quot;background-color: initial;&quot;&gt;C =&amp;nbsp;&lt;/span&gt;&lt;span style=&quot;background-color: initial;&quot;&gt;•, d$&lt;/span&gt;&lt;/div&gt;" style="rounded=0;whiteSpace=wrap;html=1;fontFamily=monospace;align=left;spacing=7;verticalAlign=top;spacingTop=-3;fillColor=#333333;fontColor=default;" parent="1" vertex="1">
          <mxGeometry x="180" y="15" width="100" height="115" as="geometry" />
        </mxCell>
        <mxCell id="rSdr6fm6Imb2P2yYMMA1-34" style="edgeStyle=orthogonalEdgeStyle;rounded=0;orthogonalLoop=1;jettySize=auto;html=1;fontFamily=monospace;fontSize=12;fontColor=default;labelBackgroundColor=#444444;resizable=0;" parent="1" source="rSdr6fm6Imb2P2yYMMA1-1" target="rSdr6fm6Imb2P2yYMMA1-31" edge="1">
          <mxGeometry relative="1" as="geometry">
            <Array as="points">
              <mxPoint x="255" y="217.5" />
              <mxPoint x="250" y="217.5" />
            </Array>
          </mxGeometry>
        </mxCell>
        <mxCell id="rSdr6fm6Imb2P2yYMMA1-1" value="&lt;div style=&quot;text-align: center;&quot;&gt;S7&lt;/div&gt;&lt;div&gt;&lt;br&gt;&lt;/div&gt;&lt;div&gt;&lt;span style=&quot;background-color: initial;&quot;&gt;A = b&lt;/span&gt;&lt;span style=&quot;background-color: initial;&quot;&gt;&amp;nbsp;&lt;/span&gt;&lt;span style=&quot;background-color: initial;&quot;&gt;•&lt;/span&gt;&lt;/div&gt;" style="rounded=0;whiteSpace=wrap;html=1;fontFamily=monospace;align=left;spacing=7;verticalAlign=top;spacingTop=-3;fillColor=#333333;fontColor=default;" parent="1" vertex="1">
          <mxGeometry x="210" y="168.72" width="70" height="60" as="geometry" />
        </mxCell>
        <mxCell id="rSdr6fm6Imb2P2yYMMA1-29" style="edgeStyle=orthogonalEdgeStyle;rounded=0;orthogonalLoop=1;jettySize=auto;html=1;fontFamily=monospace;fontSize=12;fontColor=default;labelBackgroundColor=#444444;resizable=0;" parent="1" source="rSdr6fm6Imb2P2yYMMA1-4" target="rSdr6fm6Imb2P2yYMMA1-28" edge="1">
          <mxGeometry relative="1" as="geometry">
            <Array as="points">
              <mxPoint x="140" y="160.5" />
            </Array>
          </mxGeometry>
        </mxCell>
        <mxCell id="rSdr6fm6Imb2P2yYMMA1-64" value="↑9" style="edgeLabel;html=1;align=center;verticalAlign=middle;resizable=0;points=[];rounded=0;strokeColor=default;spacing=10;fontFamily=monospace;fontSize=12;fontColor=default;labelBackgroundColor=#444444;fillColor=default;gradientColor=none;" parent="rSdr6fm6Imb2P2yYMMA1-29" vertex="1" connectable="0">
          <mxGeometry x="-0.1914" y="1" relative="1" as="geometry">
            <mxPoint x="-1" y="-2" as="offset" />
          </mxGeometry>
        </mxCell>
        <mxCell id="rSdr6fm6Imb2P2yYMMA1-4" value="&lt;div style=&quot;text-align: center;&quot;&gt;S6&lt;/div&gt;&lt;div&gt;&lt;span style=&quot;background-color: initial;&quot;&gt;&lt;br&gt;&lt;/span&gt;&lt;/div&gt;&lt;div&gt;&lt;span style=&quot;background-color: initial;&quot;&gt;E =&lt;/span&gt;&lt;span style=&quot;background-color: initial;&quot;&gt;&amp;nbsp;a&lt;/span&gt;&lt;span style=&quot;background-color: initial;&quot;&gt;&amp;nbsp;A&lt;/span&gt;&lt;span style=&quot;background-color: initial;&quot;&gt;&amp;nbsp;&lt;/span&gt;&lt;span style=&quot;background-color: initial;&quot;&gt;•&lt;/span&gt;&lt;/div&gt;" style="rounded=0;whiteSpace=wrap;html=1;fontFamily=monospace;align=left;spacing=7;verticalAlign=top;spacingTop=-3;fillColor=#333333;fontColor=default;" parent="1" vertex="1">
          <mxGeometry x="120" y="151.25" width="80" height="55" as="geometry" />
        </mxCell>
        <mxCell id="rSdr6fm6Imb2P2yYMMA1-48" style="edgeStyle=orthogonalEdgeStyle;rounded=0;orthogonalLoop=1;jettySize=auto;html=1;fontFamily=monospace;fontSize=12;fontColor=default;labelBackgroundColor=#444444;resizable=0;" parent="1" source="rSdr6fm6Imb2P2yYMMA1-7" target="rSdr6fm6Imb2P2yYMMA1-44" edge="1">
          <mxGeometry relative="1" as="geometry">
            <mxPoint x="500" y="243.72000000000003" as="sourcePoint" />
            <Array as="points">
              <mxPoint x="490" y="193.72" />
              <mxPoint x="490" y="193.72" />
            </Array>
          </mxGeometry>
        </mxCell>
        <mxCell id="rSdr6fm6Imb2P2yYMMA1-56" value="↓4" style="edgeLabel;html=1;align=center;verticalAlign=middle;resizable=0;points=[];rounded=0;strokeColor=default;spacing=10;fontFamily=monospace;fontSize=12;fontColor=default;labelBackgroundColor=#444444;fillColor=default;gradientColor=none;" parent="rSdr6fm6Imb2P2yYMMA1-48" vertex="1" connectable="0">
          <mxGeometry x="-0.2675" y="2" relative="1" as="geometry">
            <mxPoint as="offset" />
          </mxGeometry>
        </mxCell>
        <mxCell id="rSdr6fm6Imb2P2yYMMA1-7" value="&lt;div style=&quot;text-align: center;&quot;&gt;S4&lt;/div&gt;&lt;div&gt;&lt;br&gt;&lt;/div&gt;&lt;div&gt;&lt;font color=&quot;#666666&quot;&gt;&lt;span style=&quot;background-color: initial;&quot;&gt;B =&lt;/span&gt;&lt;span style=&quot;background-color: initial;&quot;&gt;&amp;nbsp;C&lt;/span&gt;&lt;span style=&quot;background-color: initial;&quot;&gt;&amp;nbsp;&lt;/span&gt;&lt;span style=&quot;background-color: initial;&quot;&gt;•&lt;/span&gt;&lt;span style=&quot;background-color: initial;&quot;&gt;&amp;nbsp;C&lt;/span&gt;&lt;/font&gt;&lt;/div&gt;&lt;div&gt;&lt;span style=&quot;background-color: initial;&quot;&gt;C =&amp;nbsp;&lt;/span&gt;&lt;span style=&quot;background-color: initial;&quot;&gt;•&lt;/span&gt;&lt;/div&gt;" style="rounded=0;whiteSpace=wrap;html=1;fontFamily=monospace;align=left;spacing=7;verticalAlign=top;spacingTop=-3;fillColor=#333333;fontColor=default;" parent="1" vertex="1">
          <mxGeometry x="460" y="212.5" width="80" height="70" as="geometry" />
        </mxCell>
        <mxCell id="rSdr6fm6Imb2P2yYMMA1-19" style="edgeStyle=orthogonalEdgeStyle;rounded=0;orthogonalLoop=1;jettySize=auto;html=1;fontFamily=monospace;fontSize=12;fontColor=default;labelBackgroundColor=#444444;resizable=0;" parent="1" source="rSdr6fm6Imb2P2yYMMA1-10" target="rSdr6fm6Imb2P2yYMMA1-18" edge="1">
          <mxGeometry relative="1" as="geometry">
            <Array as="points">
              <mxPoint x="635" y="100" />
              <mxPoint x="635" y="100" />
            </Array>
          </mxGeometry>
        </mxCell>
        <mxCell id="rSdr6fm6Imb2P2yYMMA1-20" value="d↓5" style="edgeLabel;html=1;align=center;verticalAlign=middle;resizable=0;points=[];rounded=0;strokeColor=default;spacing=10;fontFamily=monospace;fontSize=12;fontColor=default;labelBackgroundColor=#444444;fillColor=default;gradientColor=none;" parent="rSdr6fm6Imb2P2yYMMA1-19" vertex="1" connectable="0">
          <mxGeometry x="-0.0921" y="-1" relative="1" as="geometry">
            <mxPoint x="-2" y="2" as="offset" />
          </mxGeometry>
        </mxCell>
        <mxCell id="rSdr6fm6Imb2P2yYMMA1-68" style="edgeStyle=orthogonalEdgeStyle;rounded=0;orthogonalLoop=1;jettySize=auto;html=1;fontFamily=monospace;fontSize=12;fontColor=default;labelBackgroundColor=#444444;resizable=0;" parent="1" source="rSdr6fm6Imb2P2yYMMA1-10" target="rSdr6fm6Imb2P2yYMMA1-66" edge="1">
          <mxGeometry relative="1" as="geometry">
            <Array as="points">
              <mxPoint x="590" y="60" />
            </Array>
          </mxGeometry>
        </mxCell>
        <mxCell id="rSdr6fm6Imb2P2yYMMA1-69" value="($)↓5" style="edgeLabel;html=1;align=center;verticalAlign=middle;resizable=0;points=[];rounded=0;strokeColor=default;spacing=10;fontFamily=monospace;fontSize=12;fontColor=default;labelBackgroundColor=#444444;fillColor=default;gradientColor=none;" parent="rSdr6fm6Imb2P2yYMMA1-68" vertex="1" connectable="0">
          <mxGeometry x="-0.6483" relative="1" as="geometry">
            <mxPoint x="-2" as="offset" />
          </mxGeometry>
        </mxCell>
        <mxCell id="rSdr6fm6Imb2P2yYMMA1-10" value="&lt;div style=&quot;text-align: center;&quot;&gt;S5&lt;/div&gt;&lt;div style=&quot;text-align: center;&quot;&gt;&lt;br&gt;&lt;/div&gt;&lt;div&gt;&lt;font color=&quot;#666666&quot;&gt;&lt;span style=&quot;background-color: initial;&quot;&gt;A = B&lt;/span&gt;&lt;span style=&quot;background-color: initial;&quot;&gt;&amp;nbsp;&lt;/span&gt;&lt;span style=&quot;background-color: initial;&quot;&gt;•&lt;/span&gt;&lt;span style=&quot;background-color: initial;&quot;&gt;&amp;nbsp;D C&lt;/span&gt;&lt;/font&gt;&lt;/div&gt;&lt;div&gt;&lt;span style=&quot;background-color: initial;&quot;&gt;D = • d&lt;/span&gt;&lt;/div&gt;&lt;div&gt;&lt;span style=&quot;background-color: initial;&quot;&gt;D =&amp;nbsp;&lt;/span&gt;&lt;span style=&quot;background-color: initial;&quot;&gt;•, $&lt;/span&gt;&lt;/div&gt;" style="rounded=0;whiteSpace=wrap;html=1;fontFamily=monospace;align=left;spacing=7;verticalAlign=top;spacingTop=-3;fillColor=#333333;fontColor=default;" parent="1" vertex="1">
          <mxGeometry x="570" y="114.35" width="100" height="85" as="geometry" />
        </mxCell>
        <mxCell id="rSdr6fm6Imb2P2yYMMA1-45" style="edgeStyle=orthogonalEdgeStyle;rounded=0;orthogonalLoop=1;jettySize=auto;html=1;fontFamily=monospace;fontSize=12;fontColor=default;labelBackgroundColor=#444444;resizable=0;" parent="1" edge="1">
          <mxGeometry relative="1" as="geometry">
            <mxPoint x="413.5" y="294.0344827586207" as="sourcePoint" />
            <mxPoint x="570" y="294.0344827586207" as="targetPoint" />
            <Array as="points">
              <mxPoint x="500" y="294" />
              <mxPoint x="500" y="294" />
            </Array>
          </mxGeometry>
        </mxCell>
        <mxCell id="rSdr6fm6Imb2P2yYMMA1-60" value="↑4" style="edgeLabel;html=1;align=center;verticalAlign=middle;resizable=0;points=[];rounded=0;strokeColor=default;spacing=10;fontFamily=monospace;fontSize=12;fontColor=default;labelBackgroundColor=#444444;fillColor=default;gradientColor=none;" parent="rSdr6fm6Imb2P2yYMMA1-45" vertex="1" connectable="0">
          <mxGeometry x="-0.3062" y="-1" relative="1" as="geometry">
            <mxPoint x="32" as="offset" />
          </mxGeometry>
        </mxCell>
        <mxCell id="rSdr6fm6Imb2P2yYMMA1-13" value="&lt;div style=&quot;text-align: center;&quot;&gt;S3&lt;/div&gt;&lt;div&gt;&lt;br&gt;&lt;/div&gt;&lt;div&gt;&lt;span style=&quot;background-color: initial;&quot;&gt;B =&lt;/span&gt;&lt;span style=&quot;background-color: initial;&quot;&gt;&amp;nbsp;C&lt;/span&gt;&lt;span style=&quot;background-color: initial;&quot;&gt;&amp;nbsp;C&lt;/span&gt;&lt;span style=&quot;background-color: initial;&quot;&gt;&amp;nbsp;&lt;/span&gt;&lt;span style=&quot;background-color: initial;&quot;&gt;•&lt;/span&gt;&lt;/div&gt;" style="rounded=0;whiteSpace=wrap;html=1;fontFamily=monospace;align=left;spacing=7;verticalAlign=top;spacingTop=-3;fillColor=#333333;fontColor=default;" parent="1" vertex="1">
          <mxGeometry x="333.5" y="245" width="80" height="60" as="geometry" />
        </mxCell>
        <mxCell id="rSdr6fm6Imb2P2yYMMA1-23" style="edgeStyle=orthogonalEdgeStyle;rounded=0;orthogonalLoop=1;jettySize=auto;html=1;fontFamily=monospace;fontSize=12;fontColor=default;labelBackgroundColor=#444444;resizable=0;" parent="1" source="rSdr6fm6Imb2P2yYMMA1-66" target="rSdr6fm6Imb2P2yYMMA1-22" edge="1">
          <mxGeometry relative="1" as="geometry">
            <Array as="points">
              <mxPoint x="410" y="46" />
              <mxPoint x="410" y="46" />
            </Array>
          </mxGeometry>
        </mxCell>
        <mxCell id="rSdr6fm6Imb2P2yYMMA1-24" value="D" style="edgeLabel;html=1;align=center;verticalAlign=middle;resizable=0;points=[];rounded=0;strokeColor=default;spacing=10;fontFamily=monospace;fontSize=12;fontColor=default;labelBackgroundColor=#444444;fillColor=default;gradientColor=none;" parent="rSdr6fm6Imb2P2yYMMA1-23" vertex="1" connectable="0">
          <mxGeometry x="0.1583" relative="1" as="geometry">
            <mxPoint x="790" y="333" as="offset" />
          </mxGeometry>
        </mxCell>
        <mxCell id="rSdr6fm6Imb2P2yYMMA1-70" value="" style="edgeLabel;html=1;align=center;verticalAlign=middle;resizable=0;points=[];rounded=0;strokeColor=default;spacing=10;fontFamily=monospace;fontSize=12;fontColor=default;labelBackgroundColor=#444444;fillColor=default;gradientColor=none;" parent="rSdr6fm6Imb2P2yYMMA1-23" vertex="1" connectable="0">
          <mxGeometry x="-0.5797" y="1" relative="1" as="geometry">
            <mxPoint as="offset" />
          </mxGeometry>
        </mxCell>
        <mxCell id="rSdr6fm6Imb2P2yYMMA1-71" value="[5]" style="edgeLabel;html=1;align=center;verticalAlign=middle;resizable=0;points=[];rounded=0;strokeColor=default;spacing=10;fontFamily=monospace;fontSize=12;fontColor=default;labelBackgroundColor=#444444;fillColor=default;gradientColor=none;" parent="rSdr6fm6Imb2P2yYMMA1-23" vertex="1" connectable="0">
          <mxGeometry x="-0.7327" relative="1" as="geometry">
            <mxPoint x="-14" as="offset" />
          </mxGeometry>
        </mxCell>
        <mxCell id="rSdr6fm6Imb2P2yYMMA1-67" style="edgeStyle=orthogonalEdgeStyle;rounded=0;orthogonalLoop=1;jettySize=auto;html=1;fontFamily=monospace;fontSize=12;fontColor=default;labelBackgroundColor=#444444;resizable=0;" parent="1" source="rSdr6fm6Imb2P2yYMMA1-18" target="rSdr6fm6Imb2P2yYMMA1-66" edge="1">
          <mxGeometry relative="1" as="geometry">
            <Array as="points">
              <mxPoint x="570" y="40" />
              <mxPoint x="570" y="40" />
            </Array>
          </mxGeometry>
        </mxCell>
        <mxCell id="rSdr6fm6Imb2P2yYMMA1-18" value="&lt;div style=&quot;text-align: center;&quot;&gt;S10&lt;/div&gt;&lt;div style=&quot;text-align: center;&quot;&gt;&lt;br&gt;&lt;/div&gt;&lt;div&gt;&lt;span style=&quot;background-color: initial;&quot;&gt;D = d&lt;/span&gt;&lt;span style=&quot;background-color: initial;&quot;&gt;&amp;nbsp;&lt;/span&gt;&lt;span style=&quot;background-color: initial;&quot;&gt;•&lt;br&gt;&lt;/span&gt;&lt;/div&gt;" style="rounded=0;whiteSpace=wrap;html=1;fontFamily=monospace;align=left;spacing=7;verticalAlign=top;spacingTop=-3;fillColor=#333333;fontColor=default;" parent="1" vertex="1">
          <mxGeometry x="600" y="14.999999999999998" width="70" height="62.5" as="geometry" />
        </mxCell>
        <mxCell id="rSdr6fm6Imb2P2yYMMA1-52" style="edgeStyle=orthogonalEdgeStyle;rounded=0;orthogonalLoop=1;jettySize=auto;html=1;fontFamily=monospace;fontSize=12;fontColor=default;labelBackgroundColor=#444444;resizable=0;" parent="1" source="rSdr6fm6Imb2P2yYMMA1-22" target="rSdr6fm6Imb2P2yYMMA1-44" edge="1">
          <mxGeometry relative="1" as="geometry">
            <Array as="points">
              <mxPoint x="338" y="110" />
            </Array>
          </mxGeometry>
        </mxCell>
        <mxCell id="rSdr6fm6Imb2P2yYMMA1-58" value="↓2" style="edgeLabel;html=1;align=center;verticalAlign=middle;resizable=0;points=[];rounded=0;strokeColor=default;spacing=10;fontFamily=monospace;fontSize=12;fontColor=default;labelBackgroundColor=#444444;fillColor=default;gradientColor=none;" parent="rSdr6fm6Imb2P2yYMMA1-52" vertex="1" connectable="0">
          <mxGeometry x="-0.1136" y="1" relative="1" as="geometry">
            <mxPoint x="23" y="1" as="offset" />
          </mxGeometry>
        </mxCell>
        <mxCell id="rSdr6fm6Imb2P2yYMMA1-22" value="&lt;div style=&quot;text-align: center;&quot;&gt;S2&lt;/div&gt;&lt;div style=&quot;text-align: center;&quot;&gt;&lt;br&gt;&lt;/div&gt;&lt;div&gt;&lt;font color=&quot;#666666&quot;&gt;&lt;span style=&quot;background-color: initial;&quot;&gt;A = B&lt;/span&gt;&lt;span style=&quot;background-color: initial;&quot;&gt;&amp;nbsp;D&lt;/span&gt;&lt;span style=&quot;background-color: initial;&quot;&gt;&amp;nbsp;&lt;/span&gt;&lt;span style=&quot;background-color: initial;&quot;&gt;•&lt;/span&gt;&lt;span style=&quot;background-color: initial;&quot;&gt;&amp;nbsp;C&lt;/span&gt;&lt;/font&gt;&lt;/div&gt;&lt;div&gt;&lt;span style=&quot;background-color: initial;&quot;&gt;C =&amp;nbsp;&lt;/span&gt;&lt;span style=&quot;background-color: initial;&quot;&gt;•&lt;/span&gt;&lt;/div&gt;" style="rounded=0;whiteSpace=wrap;html=1;fontFamily=monospace;align=left;spacing=7;verticalAlign=top;spacingTop=-3;fillColor=#333333;fontColor=default;" parent="1" vertex="1">
          <mxGeometry x="300" y="15" width="95" height="75" as="geometry" />
        </mxCell>
        <mxCell id="rSdr6fm6Imb2P2yYMMA1-33" style="edgeStyle=orthogonalEdgeStyle;rounded=0;orthogonalLoop=1;jettySize=auto;html=1;fontFamily=monospace;fontSize=12;fontColor=default;labelBackgroundColor=#444444;resizable=0;" parent="1" source="rSdr6fm6Imb2P2yYMMA1-25" target="rSdr6fm6Imb2P2yYMMA1-31" edge="1">
          <mxGeometry relative="1" as="geometry">
            <Array as="points">
              <mxPoint x="320" y="270" />
            </Array>
          </mxGeometry>
        </mxCell>
        <mxCell id="rSdr6fm6Imb2P2yYMMA1-62" value="↑2↑5" style="edgeLabel;html=1;align=center;verticalAlign=middle;resizable=0;points=[];rounded=0;strokeColor=default;spacing=10;fontFamily=monospace;fontSize=12;fontColor=default;labelBackgroundColor=#444444;fillColor=default;gradientColor=none;" parent="rSdr6fm6Imb2P2yYMMA1-33" vertex="1" connectable="0">
          <mxGeometry x="-0.3478" y="-1" relative="1" as="geometry">
            <mxPoint as="offset" />
          </mxGeometry>
        </mxCell>
        <mxCell id="rSdr6fm6Imb2P2yYMMA1-30" style="edgeStyle=orthogonalEdgeStyle;rounded=0;orthogonalLoop=1;jettySize=auto;html=1;fontFamily=monospace;fontSize=12;fontColor=default;labelBackgroundColor=#444444;resizable=0;" parent="1" source="rSdr6fm6Imb2P2yYMMA1-28" target="hS7_LjZfpNOxfmpkIFcN-2" edge="1">
          <mxGeometry relative="1" as="geometry">
            <Array as="points">
              <mxPoint x="55" y="230" />
              <mxPoint x="55" y="230" />
            </Array>
          </mxGeometry>
        </mxCell>
        <mxCell id="rSdr6fm6Imb2P2yYMMA1-65" value="[0]" style="edgeLabel;html=1;align=center;verticalAlign=middle;resizable=0;points=[];rounded=0;strokeColor=default;spacing=10;fontFamily=monospace;fontSize=12;fontColor=default;labelBackgroundColor=#444444;fillColor=default;gradientColor=none;" parent="rSdr6fm6Imb2P2yYMMA1-30" vertex="1" connectable="0">
          <mxGeometry x="-0.0661" y="-1" relative="1" as="geometry">
            <mxPoint x="1" y="-4" as="offset" />
          </mxGeometry>
        </mxCell>
        <mxCell id="rSdr6fm6Imb2P2yYMMA1-28" value="&lt;div style=&quot;text-align: center;&quot;&gt;EGoto&lt;/div&gt;&lt;div&gt;&lt;br&gt;&lt;/div&gt;&lt;font&gt;S = •&amp;nbsp;E&lt;/font&gt;" style="rounded=0;whiteSpace=wrap;html=1;fontFamily=monospace;align=left;spacing=7;verticalAlign=top;spacingTop=-3;fillColor=#333333;fontColor=default;" parent="1" vertex="1">
          <mxGeometry x="20" y="151.25" width="64.99" height="61.25" as="geometry" />
        </mxCell>
        <mxCell id="rSdr6fm6Imb2P2yYMMA1-32" style="edgeStyle=orthogonalEdgeStyle;rounded=0;orthogonalLoop=1;jettySize=auto;html=1;fontFamily=monospace;fontSize=12;fontColor=default;labelBackgroundColor=#444444;resizable=0;" parent="1" source="rSdr6fm6Imb2P2yYMMA1-31" target="rSdr6fm6Imb2P2yYMMA1-4" edge="1">
          <mxGeometry relative="1" as="geometry">
            <Array as="points">
              <mxPoint x="160" y="275" />
            </Array>
          </mxGeometry>
        </mxCell>
        <mxCell id="rSdr6fm6Imb2P2yYMMA1-63" value="[9]" style="edgeLabel;html=1;align=center;verticalAlign=middle;resizable=0;points=[];rounded=0;strokeColor=default;spacing=10;fontFamily=monospace;fontSize=12;fontColor=default;labelBackgroundColor=#444444;fillColor=default;gradientColor=none;" parent="rSdr6fm6Imb2P2yYMMA1-32" vertex="1" connectable="0">
          <mxGeometry x="0.1337" y="-2" relative="1" as="geometry">
            <mxPoint as="offset" />
          </mxGeometry>
        </mxCell>
        <mxCell id="rSdr6fm6Imb2P2yYMMA1-31" value="&lt;div style=&quot;text-align: center;&quot;&gt;AGoto&lt;/div&gt;&lt;div&gt;&lt;span style=&quot;background-color: initial;&quot;&gt;&lt;br&gt;&lt;/span&gt;&lt;/div&gt;&lt;div&gt;&lt;span style=&quot;background-color: initial;&quot;&gt;E =&lt;/span&gt;&lt;span style=&quot;background-color: initial;&quot;&gt;&amp;nbsp;a&lt;/span&gt;&lt;span style=&quot;background-color: initial;&quot;&gt;&amp;nbsp;&lt;/span&gt;&lt;span style=&quot;background-color: initial;&quot;&gt;•&lt;/span&gt;&lt;span style=&quot;background-color: initial;&quot;&gt;&amp;nbsp;A&lt;/span&gt;&lt;/div&gt;" style="rounded=0;whiteSpace=wrap;html=1;fontFamily=monospace;align=left;spacing=7;verticalAlign=top;spacingTop=-3;fillColor=#333333;fontColor=default;" parent="1" vertex="1">
          <mxGeometry x="200" y="245" width="80" height="60" as="geometry" />
        </mxCell>
        <mxCell id="rSdr6fm6Imb2P2yYMMA1-37" value="&lt;div style=&quot;text-align: center;&quot;&gt;BGoto&lt;/div&gt;&lt;div&gt;&lt;span style=&quot;background-color: initial;&quot;&gt;&lt;br&gt;&lt;/span&gt;&lt;/div&gt;&lt;div&gt;&lt;span style=&quot;background-color: initial;&quot;&gt;A = • B D C&lt;/span&gt;&lt;/div&gt;" style="rounded=0;whiteSpace=wrap;html=1;fontFamily=monospace;align=left;spacing=7;verticalAlign=top;spacingTop=-3;fillColor=#333333;fontColor=default;" parent="1" vertex="1">
          <mxGeometry x="570" y="242.5" width="100" height="62.5" as="geometry" />
        </mxCell>
        <mxCell id="rSdr6fm6Imb2P2yYMMA1-46" style="edgeStyle=orthogonalEdgeStyle;rounded=0;orthogonalLoop=1;jettySize=auto;html=1;fontFamily=monospace;fontSize=12;fontColor=default;labelBackgroundColor=#444444;resizable=0;" parent="1" source="rSdr6fm6Imb2P2yYMMA1-44" target="rSdr6fm6Imb2P2yYMMA1-25" edge="1">
          <mxGeometry relative="1" as="geometry">
            <Array as="points">
              <mxPoint x="430" y="150" />
              <mxPoint x="430" y="150" />
            </Array>
          </mxGeometry>
        </mxCell>
        <mxCell id="rSdr6fm6Imb2P2yYMMA1-59" value="[2]" style="edgeLabel;html=1;align=center;verticalAlign=middle;resizable=0;points=[];rounded=0;strokeColor=default;spacing=10;fontFamily=monospace;fontSize=12;fontColor=default;labelBackgroundColor=#444444;fillColor=default;gradientColor=none;" parent="rSdr6fm6Imb2P2yYMMA1-46" vertex="1" connectable="0">
          <mxGeometry x="-0.0649" relative="1" as="geometry">
            <mxPoint as="offset" />
          </mxGeometry>
        </mxCell>
        <mxCell id="rSdr6fm6Imb2P2yYMMA1-47" style="edgeStyle=orthogonalEdgeStyle;rounded=0;orthogonalLoop=1;jettySize=auto;html=1;fontFamily=monospace;fontSize=12;fontColor=default;labelBackgroundColor=#444444;resizable=0;" parent="1" source="rSdr6fm6Imb2P2yYMMA1-44" target="rSdr6fm6Imb2P2yYMMA1-7" edge="1">
          <mxGeometry relative="1" as="geometry">
            <Array as="points">
              <mxPoint x="520" y="200" />
              <mxPoint x="520" y="200" />
            </Array>
          </mxGeometry>
        </mxCell>
        <mxCell id="rSdr6fm6Imb2P2yYMMA1-55" value="[9]" style="edgeLabel;html=1;align=center;verticalAlign=middle;resizable=0;points=[];rounded=0;strokeColor=default;spacing=10;fontFamily=monospace;fontSize=12;fontColor=default;labelBackgroundColor=#444444;fillColor=default;gradientColor=none;" parent="rSdr6fm6Imb2P2yYMMA1-47" vertex="1" connectable="0">
          <mxGeometry x="-0.2173" relative="1" as="geometry">
            <mxPoint y="-2" as="offset" />
          </mxGeometry>
        </mxCell>
        <mxCell id="rSdr6fm6Imb2P2yYMMA1-50" style="edgeStyle=orthogonalEdgeStyle;rounded=0;orthogonalLoop=1;jettySize=auto;html=1;fontFamily=monospace;fontSize=12;fontColor=default;labelBackgroundColor=#444444;resizable=0;" parent="1" source="rSdr6fm6Imb2P2yYMMA1-44" target="rSdr6fm6Imb2P2yYMMA1-13" edge="1">
          <mxGeometry relative="1" as="geometry">
            <Array as="points">
              <mxPoint x="400" y="170" />
            </Array>
          </mxGeometry>
        </mxCell>
        <mxCell id="rSdr6fm6Imb2P2yYMMA1-57" value="[4]" style="edgeLabel;html=1;align=center;verticalAlign=middle;resizable=0;points=[];rounded=0;strokeColor=default;spacing=10;fontFamily=monospace;fontSize=12;fontColor=default;labelBackgroundColor=#444444;fillColor=default;gradientColor=none;" parent="rSdr6fm6Imb2P2yYMMA1-50" vertex="1" connectable="0">
          <mxGeometry x="0.3341" relative="1" as="geometry">
            <mxPoint as="offset" />
          </mxGeometry>
        </mxCell>
        <mxCell id="rSdr6fm6Imb2P2yYMMA1-44" value="&lt;div style=&quot;text-align: center;&quot;&gt;CGoto&lt;/div&gt;&lt;div&gt;&lt;span style=&quot;background-color: initial;&quot;&gt;&lt;br&gt;&lt;/span&gt;&lt;/div&gt;&lt;div&gt;&lt;span style=&quot;background-color: initial;&quot;&gt;B =&amp;nbsp;&lt;/span&gt;&lt;span style=&quot;background-color: initial;&quot;&gt;• C C&lt;/span&gt;&lt;br&gt;&lt;/div&gt;&lt;div&gt;&lt;span style=&quot;background-color: initial;&quot;&gt;B =&amp;nbsp;&lt;/span&gt;&lt;span style=&quot;background-color: initial;&quot;&gt;C&amp;nbsp;&lt;/span&gt;&lt;span style=&quot;background-color: initial;&quot;&gt;•&lt;/span&gt;&lt;span style=&quot;background-color: initial;&quot;&gt;&amp;nbsp;&lt;/span&gt;&lt;span style=&quot;background-color: initial;&quot;&gt;C&lt;/span&gt;&lt;/div&gt;&lt;div&gt;A = B D • C&lt;/div&gt;" style="rounded=0;whiteSpace=wrap;html=1;fontFamily=monospace;align=left;spacing=7;verticalAlign=top;spacingTop=-3;fillColor=#333333;fontColor=default;" parent="1" vertex="1">
          <mxGeometry x="440" y="90" width="100" height="90" as="geometry" />
        </mxCell>
        <mxCell id="rSdr6fm6Imb2P2yYMMA1-25" value="&lt;div style=&quot;text-align: center;&quot;&gt;S1&lt;/div&gt;&lt;div style=&quot;text-align: center;&quot;&gt;&lt;br&gt;&lt;/div&gt;&lt;div&gt;&lt;span style=&quot;background-color: initial;&quot;&gt;A = B&lt;/span&gt;&lt;span style=&quot;background-color: initial;&quot;&gt;&amp;nbsp;D&lt;/span&gt;&lt;span style=&quot;background-color: initial;&quot;&gt;&amp;nbsp;C&lt;/span&gt;&lt;span style=&quot;background-color: initial;&quot;&gt;&amp;nbsp;&lt;/span&gt;&lt;span style=&quot;background-color: initial;&quot;&gt;•&lt;/span&gt;&lt;/div&gt;" style="rounded=0;whiteSpace=wrap;html=1;fontFamily=monospace;align=left;spacing=7;verticalAlign=top;spacingTop=-3;fillColor=#333333;fontColor=default;" parent="1" vertex="1">
          <mxGeometry x="290" y="138.1" width="95" height="55" as="geometry" />
        </mxCell>
        <mxCell id="rSdr6fm6Imb2P2yYMMA1-66" value="&lt;div style=&quot;text-align: center;&quot;&gt;DGoto&lt;/div&gt;&lt;div style=&quot;text-align: center;&quot;&gt;&lt;br&gt;&lt;/div&gt;&lt;div&gt;&lt;span style=&quot;background-color: initial;&quot;&gt;A = B&lt;/span&gt;&lt;span style=&quot;background-color: initial;&quot;&gt;&amp;nbsp;&lt;/span&gt;&lt;span style=&quot;background-color: initial;&quot;&gt;•&lt;/span&gt;&lt;span style=&quot;background-color: initial;&quot;&gt;&amp;nbsp;D C&lt;/span&gt;&lt;/div&gt;" style="rounded=0;whiteSpace=wrap;html=1;fontFamily=monospace;align=left;spacing=7;verticalAlign=top;spacingTop=-3;fillColor=#333333;fontColor=default;" parent="1" vertex="1">
          <mxGeometry x="440" y="15" width="100" height="62.5" as="geometry" />
        </mxCell>
      </root>
    </mxGraphModel>
  </diagram>
</mxfile>
